<svg width="160" height="76" viewBox="0 0 160 76" fill="none" xmlns="http://www.w3.org/2000/svg">
<rect width="160" height="76" rx="20" fill="url(#paint0_linear_210_575)"/>
<path d="M49.8438 40.9034H54.446L56.108 42.9915L58.9205 46.1875L62.5852 50.6193H57.3438L54.7443 47.5938L52.9972 45.0795L49.8438 40.9034ZM62.5426 38.0909C62.5426 40.5199 62.0703 42.5689 61.1257 44.2379C60.1811 45.8999 58.9063 47.1605 57.3011 48.0199C55.696 48.8722 53.9063 49.2983 51.9318 49.2983C49.9432 49.2983 48.1463 48.8686 46.5412 48.0092C44.9432 47.1428 43.6719 45.8786 42.7273 44.2166C41.7898 42.5476 41.321 40.5057 41.321 38.0909C41.321 35.6619 41.7898 33.6165 42.7273 31.9545C43.6719 30.2855 44.9432 29.0249 46.5412 28.1726C48.1463 27.3132 49.9432 26.8835 51.9318 26.8835C53.9063 26.8835 55.696 27.3132 57.3011 28.1726C58.9063 29.0249 60.1811 30.2855 61.1257 31.9545C62.0703 33.6165 62.5426 35.6619 62.5426 38.0909ZM56.4489 38.0909C56.4489 36.7841 56.2749 35.6832 55.9268 34.7884C55.5859 33.8864 55.0781 33.2045 54.4034 32.7429C53.7358 32.2741 52.9119 32.0398 51.9318 32.0398C50.9517 32.0398 50.1243 32.2741 49.4496 32.7429C48.782 33.2045 48.2741 33.8864 47.9261 34.7884C47.5852 35.6832 47.4148 36.7841 47.4148 38.0909C47.4148 39.3977 47.5852 40.5021 47.9261 41.4041C48.2741 42.299 48.782 42.9808 49.4496 43.4496C50.1243 43.9112 50.9517 44.142 51.9318 44.142C52.9119 44.142 53.7358 43.9112 54.4034 43.4496C55.0781 42.9808 55.5859 42.299 55.9268 41.4041C56.2749 40.5021 56.4489 39.3977 56.4489 38.0909ZM79.0085 41.8409V32.6364H84.8892V49H79.3068V45.8892H79.1364C78.7813 46.9332 78.1598 47.75 77.272 48.3395C76.3842 48.9219 75.3295 49.2131 74.108 49.2131C72.9645 49.2131 71.9631 48.9503 71.1037 48.4247C70.2514 47.8991 69.5874 47.1747 69.1115 46.2514C68.6428 45.3281 68.4048 44.2699 68.3977 43.0767V32.6364H74.2784V41.8409C74.2855 42.6506 74.4915 43.2862 74.8963 43.7479C75.3082 44.2095 75.8835 44.4403 76.6222 44.4403C77.1122 44.4403 77.5348 44.3374 77.8899 44.1314C78.2521 43.9183 78.5291 43.62 78.7209 43.2365C78.9197 42.8459 79.0156 42.3807 79.0085 41.8409ZM90.8801 49V32.6364H96.7608V49H90.8801ZM93.8205 30.9318C93.025 30.9318 92.3432 30.669 91.775 30.1435C91.2069 29.6179 90.9228 28.9858 90.9228 28.2472C90.9228 27.5085 91.2069 26.8764 91.775 26.3509C92.3432 25.8253 93.025 25.5625 93.8205 25.5625C94.623 25.5625 95.3049 25.8253 95.8659 26.3509C96.4341 26.8764 96.7182 27.5085 96.7182 28.2472C96.7182 28.9858 96.4341 29.6179 95.8659 30.1435C95.3049 30.669 94.623 30.9318 93.8205 30.9318ZM102.928 49V45.7614L110.087 37.196V37.1108H103.183V32.6364H117.033V36.2159L110.513 44.4403V44.5256H117.288V49H102.928Z" fill="white"/>
<defs>
<linearGradient id="paint0_linear_210_575" x1="80" y1="0" x2="80" y2="76" gradientUnits="userSpaceOnUse">
<stop stop-color="#5754FF"/>
<stop offset="0.5" stop-color="#8280FF"/>
<stop offset="1" stop-color="#91FFF8"/>
</linearGradient>
</defs>
</svg>
