<svg width="22" height="20" viewBox="0 0 22 20" fill="none" xmlns="http://www.w3.org/2000/svg">
<path d="M1 11.6755V15.5899C1 15.8847 1.29848 16.1237 1.66667 16.1237H7.66667" stroke="#DAE5E8" stroke-width="1.92706" stroke-linecap="round" stroke-linejoin="round"/>
<path d="M17.6669 11.6755V15.5899C17.6669 15.8847 17.3684 16.1237 17.0002 16.1237H12.1113" stroke="#DAE5E8" stroke-width="1.92706" stroke-linecap="round" stroke-linejoin="round"/>
<path d="M12.1113 3.66888H17.0002C17.3684 3.66888 17.6669 3.90787 17.6669 4.20266V8.11703" stroke="#DAE5E8" stroke-width="1.92706" stroke-linecap="round" stroke-linejoin="round"/>
<path d="M1 8.11703V4.20266C1 3.90787 1.29848 3.66888 1.66667 3.66888H7.66667" stroke="#DAE5E8" stroke-width="1.92706" stroke-linecap="round" stroke-linejoin="round"/>
<path d="M12.1114 16.1237V17.0133C12.1114 17.996 11.1165 18.7926 9.88921 18.7926C8.66188 18.7926 7.66699 17.996 7.66699 17.0133V16.1237" stroke="#DAE5E8" stroke-width="1.92706" stroke-linecap="round" stroke-linejoin="round"/>
<path d="M1 8.11703H2.11111C3.33841 8.11703 4.33333 8.91361 4.33333 9.8963C4.33333 10.879 3.33841 11.6756 2.11111 11.6756H1" stroke="#DAE5E8" stroke-width="1.92706" stroke-linecap="round" stroke-linejoin="round"/>
<path d="M17.667 8.11703H18.7781C20.0054 8.11703 21.0003 8.91361 21.0003 9.8963C21.0003 10.879 20.0054 11.6756 18.7781 11.6756H17.667" stroke="#DAE5E8" stroke-width="1.92706" stroke-linecap="round" stroke-linejoin="round"/>
<path d="M12.1114 3.66889V2.77926C12.1114 1.7966 11.1165 1 9.88921 1C8.66188 1 7.66699 1.7966 7.66699 2.77926V3.66889" stroke="#DAE5E8" stroke-width="1.92706" stroke-linecap="round" stroke-linejoin="round"/>
</svg>
