<svg width="154" height="151" viewBox="0 0 154 151" fill="none" xmlns="http://www.w3.org/2000/svg">
<path d="M154 75.1404C154 116.648 119.523 150.281 77 150.281C34.4771 150.281 0 116.648 0 75.1404C0 33.6565 34.4771 0 77 0C119.523 0 154 33.6565 154 75.1404ZM79.0663 24.8448C62.1458 24.8448 51.354 31.8004 42.8797 44.1626C41.7818 45.7641 42.1491 47.9241 43.7226 49.0885L54.4961 57.06C56.1122 58.2559 58.4147 57.9714 59.6703 56.4171C65.2168 49.5521 69.0199 45.5711 77.462 45.5711C83.8049 45.5711 91.6505 49.5548 91.6505 55.5569C91.6505 60.0944 87.812 62.4247 81.5492 65.8512C74.2454 69.8466 64.5806 74.8195 64.5806 87.2598V88.4718C64.5806 90.4796 66.2489 92.1076 68.3065 92.1076H85.6935C87.7511 92.1076 89.4194 90.4796 89.4194 88.4718V88.0679C89.4194 79.4443 115.247 79.0853 115.247 55.7493C115.247 38.1756 96.567 24.8448 79.0663 24.8448ZM77 99.9852C69.1246 99.9852 62.7177 106.237 62.7177 113.923C62.7177 121.607 69.1246 127.86 77 127.86C84.8754 127.86 91.2823 121.607 91.2823 113.923C91.2823 106.237 84.8754 99.9852 77 99.9852Z" fill="white"/>
</svg>
