<svg width="215" height="151" viewBox="0 0 215 151" fill="none" xmlns="http://www.w3.org/2000/svg">
<path d="M147.687 28.4276C147.687 12.8653 129.654 0.25 107.409 0.25C85.1632 0.25 67.1303 12.8653 67.1303 28.4276C67.1303 43.9898 85.1632 56.6051 107.409 56.6051C129.654 56.6051 147.687 43.9898 147.687 28.4276ZM98.0061 71.0168C73.1133 60.3563 32.7932 57.427 12.503 56.6198C5.6851 56.3498 0 59.9835 0 64.5712V129.967C0 134.173 4.86275 137.68 11.1143 137.906C29.4325 138.578 66.4926 141.041 92.107 150.067C96.0383 151.452 100.7 149.565 100.7 146.583V74.3805C100.696 73.0098 99.7263 71.7535 98.0061 71.0168ZM202.314 56.6198C182.028 57.4241 141.704 60.3563 116.815 71.0168C115.095 71.7535 114.126 73.0597 114.126 74.4304V146.574C114.126 149.565 118.8 151.455 122.744 150.067C148.354 141.05 185.393 138.587 203.707 137.915C209.959 137.686 214.821 134.179 214.821 129.973V64.5712C214.817 59.9835 209.132 56.3498 202.314 56.6198Z" fill="white"/>
</svg>
